<svg width="17" height="16" viewBox="0 0 17 16" fill="none" xmlns="http://www.w3.org/2000/svg">
<path fill-rule="evenodd" clip-rule="evenodd" d="M8.4 14.4C10.0974 14.4 11.7253 13.7257 12.9255 12.5255C14.1257 11.3252 14.8 9.69738 14.8 8C14.8 6.30261 14.1257 4.67475 12.9255 3.47452C11.7253 2.27428 10.0974 1.6 8.4 1.6C6.70261 1.6 5.07475 2.27428 3.87452 3.47452C2.67428 4.67475 2 6.30261 2 8C2 9.69738 2.67428 11.3252 3.87452 12.5255C5.07475 13.7257 6.70261 14.4 8.4 14.4ZM11.3656 6.9656C11.5113 6.81472 11.592 6.61264 11.5901 6.40288C11.5883 6.19312 11.5042 5.99247 11.3559 5.84414C11.2075 5.69582 11.0069 5.61168 10.7971 5.60986C10.5874 5.60804 10.3853 5.68867 10.2344 5.8344L7.6 8.4688L6.5656 7.4344C6.41472 7.28867 6.21264 7.20804 6.00288 7.20986C5.79312 7.21168 5.59247 7.29582 5.44414 7.44414C5.29582 7.59247 5.21168 7.79312 5.20986 8.00288C5.20804 8.21264 5.28867 8.41472 5.4344 8.5656L7.0344 10.1656C7.18442 10.3156 7.38787 10.3998 7.6 10.3998C7.81213 10.3998 8.01558 10.3156 8.1656 10.1656L11.3656 6.9656Z" fill="#00C781"/>
</svg>
