<svg width="43" height="43" viewBox="0 0 43 43" fill="none" xmlns="http://www.w3.org/2000/svg">
<g clip-path="url(#clip0_3518_7472)">
<path d="M43 21.5C43 21.2388 42.9953 20.9786 42.9861 20.7197C42.5754 9.20704 33.1129 0 21.5 0C9.88706 0 0.424625 9.20704 0.0139414 20.7197C0.00470312 20.9786 0 21.2388 0 21.5C0 33.3741 11.0441 42.2198 21.5 42.2198C32.1454 42.2198 43 33.3741 43 21.5Z" fill="#FF5876"/>
<path d="M21.5 41.4395C9.88723 41.4395 0.426473 32.2322 0.0156211 20.7197C0.00629883 20.9789 0 21.2387 0 21.5C0 33.3742 9.62587 43 21.5 43C33.3741 43 43 33.3742 43 21.5C43 21.2387 42.9937 20.9789 42.9845 20.7198C42.5735 32.2323 33.1128 41.4395 21.5 41.4395Z" fill="#E6485D"/>
<path d="M39.4239 20.7197C39.0154 11.1735 31.1469 3.55945 21.5001 3.55945C11.8532 3.55945 3.9847 11.1735 3.5762 20.7197C3.56511 20.9785 3.57611 38.2994 21.5001 38.2994C39.424 38.2994 39.435 20.9785 39.4239 20.7197Z" fill="#E4EEF9"/>
<path d="M21.4999 37.8801C11.8531 37.8801 3.98588 30.2659 3.57721 20.7197C3.56613 20.9786 3.55933 21.2384 3.55933 21.4999C3.55933 31.4082 11.5916 39.4405 21.4999 39.4405C31.4082 39.4405 39.4405 31.4083 39.4405 21.5C39.4405 21.2385 39.4336 20.9786 39.4226 20.7198C39.0139 30.266 31.1467 37.8801 21.4999 37.8801Z" fill="#D5E0F2"/>
<path d="M28.0167 15.2054C27.5053 14.7011 26.6819 14.7067 26.1777 15.218L23.1262 18.3117L23.4328 19.7846L24.8582 20.2594L28.0294 17.0444C28.5336 16.5331 28.528 15.7097 28.0167 15.2054Z" fill="#405B6C"/>
<path d="M19.6593 18.4301L12.7388 12.263C12.2025 11.7851 11.3806 11.8325 10.9028 12.3687C10.425 12.9049 10.4723 13.7269 11.0085 14.2047L18.0653 20.4933L19.5358 20.0028L19.6593 18.4301Z" fill="#405B6C"/>
<path d="M30.7078 29.8847C30.5602 29.8847 30.4118 29.8347 30.2899 29.7324L22.0533 22.8139C21.7784 22.5829 21.7426 22.1727 21.9736 21.8979C22.2046 21.6228 22.6146 21.5871 22.8897 21.8182L31.1263 28.7367C31.4012 28.9677 31.437 29.3779 31.206 29.6527C31.0774 29.8058 30.8932 29.8847 30.7078 29.8847Z" fill="#86DCFF"/>
<path d="M18.0652 20.4933L19.2796 21.5756L20.8392 21.0456L20.7546 19.4063L19.6592 18.4302C18.8971 18.8881 18.3202 19.6219 18.0652 20.4933Z" fill="#2D4456"/>
<path d="M23.1263 18.3118L22.0938 19.3585V21.4133H23.7202L24.8583 20.2594C24.5456 19.4132 23.9218 18.7184 23.1263 18.3118Z" fill="#2D4456"/>
<path d="M23.5815 20.7196C23.2655 19.8773 22.4528 19.2777 21.5001 19.2777C20.5474 19.2777 19.7346 19.8773 19.4187 20.7196C19.3276 20.9624 19.4126 22.942 21.5001 22.942C23.5875 22.942 23.6725 20.9624 23.5815 20.7196Z" fill="#FF5876"/>
<path d="M21.4999 22.1617C20.5472 22.1617 19.7348 21.5621 19.4188 20.7197C19.3277 20.9625 19.2776 21.2253 19.2776 21.4999C19.2776 22.7273 20.2726 23.7222 21.4998 23.7222C22.7272 23.7222 23.722 22.7272 23.722 21.4999C23.722 21.2253 23.6719 20.9625 23.5809 20.7197C23.265 21.562 22.4526 22.1617 21.4999 22.1617Z" fill="#E6485D"/>
<path d="M22.1513 7.85869V5.8408C22.1513 5.48101 21.8596 5.18933 21.4999 5.18933C21.1401 5.18933 20.8484 5.48101 20.8484 5.8408V7.85869C20.8484 8.21848 21.14 8.51016 21.4999 8.51016C21.8597 8.51016 22.1513 8.21848 22.1513 7.85869Z" fill="#405B6C"/>
<path d="M20.8484 35.1413V37.1592C20.8484 37.519 21.14 37.8107 21.4999 37.8107C21.8597 37.8107 22.1513 37.519 22.1513 37.1592V35.1413C22.1513 34.7815 21.8596 34.4899 21.4999 34.4899C21.1401 34.4899 20.8484 34.7815 20.8484 35.1413Z" fill="#405B6C"/>
<path d="M37.1591 22.1514C37.519 22.1514 37.8106 21.8598 37.8106 21.5C37.8106 21.1402 37.5189 20.8485 37.1591 20.8485H35.1412C34.7814 20.8485 34.4897 21.1402 34.4897 21.5C34.4897 21.8598 34.7814 22.1514 35.1412 22.1514H37.1591Z" fill="#405B6C"/>
<path d="M5.84068 20.8485C5.4808 20.8485 5.18921 21.1402 5.18921 21.5C5.18921 21.8598 5.4808 22.1514 5.84068 22.1514H7.85857C8.21844 22.1514 8.51003 21.8598 8.51003 21.5C8.51003 21.1402 8.21836 20.8485 7.85857 20.8485H5.84068Z" fill="#405B6C"/>
</g>
<defs>
<clipPath id="clip0_3518_7472">
<rect width="43" height="43" fill="white"/>
</clipPath>
</defs>
</svg>
