<svg width="17" height="16" viewBox="0 0 17 16" fill="none" xmlns="http://www.w3.org/2000/svg">
<path fill-rule="evenodd" clip-rule="evenodd" d="M8.4 14.4C10.0974 14.4 11.7253 13.7257 12.9255 12.5255C14.1257 11.3253 14.8 9.69739 14.8 8C14.8 6.30261 14.1257 4.67475 12.9255 3.47452C11.7253 2.27428 10.0974 1.6 8.4 1.6C6.70261 1.6 5.07475 2.27428 3.87452 3.47452C2.67428 4.67475 2 6.30261 2 8C2 9.69739 2.67428 11.3253 3.87452 12.5255C5.07475 13.7257 6.70261 14.4 8.4 14.4ZM7.3656 5.8344C7.21472 5.68867 7.01264 5.60804 6.80288 5.60986C6.59312 5.61168 6.39247 5.69582 6.24414 5.84415C6.09582 5.99247 6.01168 6.19312 6.00986 6.40288C6.00804 6.61264 6.08867 6.81472 6.2344 6.9656L7.2688 8L6.2344 9.0344C6.15799 9.1082 6.09705 9.19647 6.05512 9.29408C6.01319 9.39168 5.99112 9.49666 5.9902 9.60288C5.98928 9.7091 6.00952 9.81445 6.04974 9.91276C6.08997 10.0111 6.14937 10.1004 6.22448 10.1755C6.2996 10.2506 6.38892 10.31 6.48724 10.3503C6.58555 10.3905 6.6909 10.4107 6.79712 10.4098C6.90334 10.4089 7.00832 10.3868 7.10592 10.3449C7.20353 10.303 7.2918 10.242 7.3656 10.1656L8.4 9.1312L9.4344 10.1656C9.58528 10.3113 9.78736 10.392 9.99712 10.3901C10.2069 10.3883 10.4075 10.3042 10.5559 10.1559C10.7042 10.0075 10.7883 9.80688 10.7901 9.59712C10.792 9.38736 10.7113 9.18528 10.5656 9.0344L9.5312 8L10.5656 6.9656C10.7113 6.81472 10.792 6.61264 10.7901 6.40288C10.7883 6.19312 10.7042 5.99247 10.5559 5.84415C10.4075 5.69582 10.2069 5.61168 9.99712 5.60986C9.78736 5.60804 9.58528 5.68867 9.4344 5.8344L8.4 6.8688L7.3656 5.8344Z" fill="#FF4040"/>
</svg>
