<?xml version="1.0" encoding="UTF-8"?>
<svg id="Layer_1" data-name="Layer 1" xmlns="http://www.w3.org/2000/svg" viewBox="0 0 428.21 481.58">
  <defs>
    <style>
      .cls-1 {
        fill: #4fa941;
      }

      .cls-2 {
        fill: #f47920;
      }
    </style>
  </defs>
  <path class="cls-2" d="M422.35,.01c4.26-.02,6.07,1.79,5.85,5.82-.29,5.15-2.16,9.91-4.06,14.61-5.26,13.02-11.54,25.56-17.9,38.07-7.45,14.64-15.47,28.92-25.68,41.88-14.34,18.2-32.36,31.02-54.52,38.03-13.82,4.37-27.71,8.49-41.74,12.14-15.63,4.07-31.4,7.53-47.24,10.69-24.52,4.9-49.27,8.56-73.73,13.82-19.06,4.1-37.47,9.94-54.72,19.04-12.85,6.78-24.67,15.16-35.94,24.31-10.73,8.71-19.99,18.86-28.43,29.72-6.46,8.31-12,17.28-17.42,26.31-8.41,14.02-15.66,28.66-23.02,43.23-.75,1.49-1.65,4.38-2.9,3.82-1.88-.85-.28-3.28,.13-4.94,4.65-18.72,10.09-37.23,15.77-55.66,7.11-23.02,14.99-45.78,25.45-67.54,4.92-10.23,10.59-20.06,16.97-29.48,5.45-8.04,11.89-15.2,18.65-22.08,7.81-7.94,16.65-14.66,25.89-20.86,13.24-8.87,27.35-16.11,41.99-22.33,15.9-6.76,32.3-12.19,48.88-17.01,22.15-6.44,44.4-12.58,66.57-18.94,15.61-4.48,31.09-9.41,46.43-14.76,19.97-6.97,39.63-14.73,58.86-23.53,11.91-5.45,23.6-11.37,35.42-17.03,5.25-2.51,10.54-4.91,16.12-6.63,1.51-.47,3.03-.83,4.32-.75Z"/>
  <path class="cls-1" d="M337.88,201.05c-1.8,7.6-5.58,14.93-9.54,21.87-6.52,11.33-12.54,23-20.23,33.75-13.93,19.44-29.23,33.65-52.5,40.57-11.54,3.42-23.25,3-35.11,3.68-29.85,1.74-59.69,1.17-89.36,5.75-16.76,2.59-32.94,6.36-48.64,13.41-15.18,6.82-29.43,14.83-39.83,28.69-11.18,14.9-18.09,32.81-22.46,50.81-3.82,15.77-6.36,31.85-8,47.99-1.12,11.04-1.2,22.08-1.74,33.12-.06,1.14-1.71,1.23-1.89,.1-3.77-24.12-4.71-48.52-3.88-72.88,.42-12.51,1.37-25.01,3.28-37.38,1.83-11.89,4.57-23.66,8.56-35.01,3.99-11.34,9.25-22.23,15.82-32.31,7.04-10.8,15.54-20.6,25.06-29.28,3.11-2.83,6.32-5.54,9.62-8.14,44.67-35.17,98.59-40.26,152.7-46.04,22.29-2.39,43.91-5.32,65.26-11.37,9.92-2.82,18.97-6.63,28.49-9.85,5.78-1.96,11.64-4.26,17.41-5.03,5.76-.78,8.33,1.88,6.98,7.56Z"/>
</svg>